<svg width="23" height="23" viewBox="0 0 23 23" fill="none" xmlns="http://www.w3.org/2000/svg">
<circle cx="11.3136" cy="11.5" r="9" transform="rotate(90 11.3136 11.5)" fill="#EA4D4D"/>
<path d="M14.2836 14.1116C14.319 14.0312 14.3382 13.9447 14.3402 13.857L14.3402 9.14295C14.3402 9.05504 14.3228 8.968 14.2892 8.88678C14.2556 8.80557 14.2063 8.73177 14.1441 8.66961C14.0186 8.54408 13.8483 8.47355 13.6708 8.47355C13.5829 8.47355 13.4958 8.49087 13.4146 8.52451C13.3334 8.55815 13.2596 8.60745 13.1974 8.66961C13.0719 8.79515 13.0014 8.96541 13.0014 9.14295L13.0061 12.2495L9.42813 8.67154C9.3031 8.54652 9.13353 8.47628 8.95672 8.47628C8.77991 8.47628 8.61034 8.54652 8.48532 8.67154C8.36029 8.79657 8.29006 8.96614 8.29006 9.14295C8.29006 9.31976 8.36029 9.48933 8.48532 9.61435L12.0633 13.1923L8.95672 13.1876C8.86872 13.1872 8.78151 13.2043 8.70013 13.2378C8.61875 13.2713 8.54482 13.3206 8.48259 13.3829C8.42035 13.4451 8.37106 13.519 8.33755 13.6004C8.30404 13.6818 8.28697 13.769 8.28733 13.857C8.28697 13.945 8.30404 14.0322 8.33755 14.1136C8.37106 14.195 8.42035 14.2689 8.48259 14.3311C8.54482 14.3934 8.61875 14.4427 8.70013 14.4762C8.78151 14.5097 8.86872 14.5267 8.95672 14.5264L13.6708 14.5264C13.7585 14.5245 13.845 14.5052 13.9253 14.4698C14.0872 14.4022 14.216 14.2735 14.2836 14.1116Z" fill="white"/>
</svg>
