<svg width="23" height="23" viewBox="0 0 23 23" fill="none" xmlns="http://www.w3.org/2000/svg">
<circle cx="11.3137" cy="11.5001" r="9" fill="#2DC78F"/>
<path d="M13.9253 8.53013C13.845 8.4947 13.7585 8.47547 13.6707 8.47356L8.9567 8.47356C8.86879 8.47356 8.78175 8.49087 8.70053 8.52451C8.61932 8.55815 8.54552 8.60746 8.48336 8.66962C8.35783 8.79516 8.2873 8.96542 8.2873 9.14295C8.2873 9.23086 8.30462 9.3179 8.33826 9.39912C8.3719 9.48033 8.42121 9.55413 8.48337 9.61629C8.6089 9.74182 8.77916 9.81235 8.9567 9.81235L12.0633 9.80763L8.48529 13.3856C8.36027 13.5106 8.29003 13.6802 8.29003 13.857C8.29003 14.0338 8.36027 14.2034 8.48529 14.3284C8.61032 14.4534 8.77989 14.5237 8.9567 14.5237C9.13351 14.5237 9.30308 14.4534 9.4281 14.3284L13.0061 10.7504L13.0013 13.857C13.001 13.945 13.0181 14.0322 13.0516 14.1136C13.0851 14.195 13.1344 14.2689 13.1966 14.3311C13.2588 14.3934 13.3328 14.4427 13.4142 14.4762C13.4955 14.5097 13.5827 14.5268 13.6707 14.5264C13.7587 14.5268 13.846 14.5097 13.9273 14.4762C14.0087 14.4427 14.0826 14.3934 14.1449 14.3311C14.2071 14.2689 14.2564 14.195 14.2899 14.1136C14.3234 14.0322 14.3405 13.945 14.3401 13.857L14.3401 9.14295C14.3382 9.0552 14.319 8.9687 14.2836 8.88839C14.2159 8.72648 14.0872 8.59775 13.9253 8.53013Z" fill="white"/>
</svg>
