<svg width="48" height="48" viewBox="0 0 48 48" fill="none" xmlns="http://www.w3.org/2000/svg">
<circle cx="24" cy="24" r="23.5" fill="white" stroke="#EBEBF3"/>
<path fill-rule="evenodd" clip-rule="evenodd" d="M40 24C40 32.8366 32.8366 40 24 40C15.1634 40 8 32.8366 8 24C8 15.1634 15.1634 8 24 8C32.8366 8 40 15.1634 40 24Z" fill="#E84142"/>
<path fill-rule="evenodd" clip-rule="evenodd" d="M19.4661 30.3669H16.361C15.7085 30.3669 15.3862 30.3669 15.1896 30.2411C14.9774 30.1035 14.8477 29.8756 14.8319 29.624C14.8202 29.3921 14.9813 29.1091 15.3036 28.5431L22.9706 15.029C23.2968 14.4551 23.4619 14.1682 23.6703 14.062C23.8943 13.9481 24.1616 13.9481 24.3856 14.062C24.594 14.1682 24.7591 14.4551 25.0853 15.029L26.6614 17.7804L26.6695 17.7944C27.0219 18.4101 27.2006 18.7223 27.2785 19.0499C27.365 19.4076 27.365 19.7849 27.2785 20.1426C27.2 20.4728 27.023 20.7873 26.6654 21.4122L22.6381 28.5313L22.6277 28.5496C22.2729 29.1703 22.0932 29.4848 21.8441 29.7223C21.5729 29.9817 21.2467 30.1703 20.889 30.2765C20.5628 30.3669 20.1972 30.3669 19.4661 30.3669Z" fill="white"/>
<path fill-rule="evenodd" clip-rule="evenodd" d="M27.3076 30.3672H31.7571C32.4135 30.3672 32.7436 30.3672 32.9402 30.2376C33.1524 30.1 33.286 29.8681 33.2979 29.6165C33.3092 29.3923 33.1516 29.1202 32.8426 28.5871C32.8321 28.5689 32.8213 28.5505 32.8104 28.5317L30.5818 24.719L30.5565 24.6761C30.2433 24.1465 30.0851 23.8791 29.8822 23.7757C29.6581 23.6617 29.3948 23.6617 29.1708 23.7757C28.9663 23.8818 28.8012 24.1609 28.475 24.7229L26.2543 28.5356L26.2466 28.5487C25.9215 29.1099 25.7591 29.3903 25.7708 29.6205C25.7865 29.872 25.9162 30.1039 26.1285 30.2415C26.3211 30.3672 26.6512 30.3672 27.3076 30.3672Z" fill="white"/>
</svg>
