<svg width="48" height="48" viewBox="0 0 48 48" fill="none" xmlns="http://www.w3.org/2000/svg">
<circle cx="24" cy="24" r="23.5" fill="white" stroke="#EBEBF3"/>
<circle cx="24" cy="24" r="16" fill="#F7931A"/>
<path fill-rule="evenodd" clip-rule="evenodd" d="M30.6248 21.9098C30.9578 19.6681 29.2634 18.4631 26.9465 17.6592L27.6981 14.6227L25.8631 14.162L25.1314 17.1185C24.649 16.9975 24.1536 16.8832 23.6612 16.77L24.3981 13.794L22.5642 13.3334L21.8121 16.3689C21.4128 16.2773 21.0209 16.1867 20.6404 16.0914L20.6425 16.082L18.1119 15.4455L17.6237 17.4197C17.6237 17.4197 18.9852 17.734 18.9565 17.7534C19.6996 17.9403 19.834 18.4357 19.8115 18.8285L18.9554 22.2878C19.0066 22.3009 19.073 22.3199 19.1462 22.3494L19.084 22.3337C19.0414 22.323 18.9973 22.3118 18.9523 22.3009L17.7523 27.1469C17.6614 27.3743 17.4309 27.7155 16.9114 27.586C16.9297 27.6128 15.5776 27.2506 15.5776 27.2506L14.6667 29.3664L17.0546 29.966C17.3213 30.0333 17.5847 30.1026 17.8454 30.171C18.0191 30.2166 18.1914 30.2619 18.3627 30.3061L17.6034 33.3774L19.4362 33.8381L20.1883 30.7994C20.689 30.9363 21.175 31.0626 21.6506 31.1816L20.9012 34.2061L22.7362 34.6667L23.4956 31.6012C26.6246 32.1977 28.9775 31.9571 29.9679 29.1063C30.766 26.811 29.9282 25.487 28.2819 24.6236C29.4808 24.3451 30.3839 23.5507 30.6248 21.9098ZM26.4323 27.8318C25.912 29.9376 22.6396 29.067 21.1424 28.6687C21.0077 28.6328 20.8873 28.6008 20.7846 28.5751L21.7923 24.5062C21.9173 24.5376 22.0701 24.5721 22.2431 24.6113C23.7917 24.9613 26.9654 25.6786 26.4323 27.8318ZM22.5543 22.723C23.8026 23.0586 26.5255 23.7905 26.9998 21.8766C27.4842 19.9189 24.8377 19.3287 23.5452 19.0405C23.3998 19.0081 23.2716 18.9795 23.1668 18.9532L22.2533 22.6436C22.3396 22.6653 22.4408 22.6925 22.5543 22.723Z" fill="white"/>
</svg>
