<svg width="48" height="48" viewBox="0 0 48 48" fill="none" xmlns="http://www.w3.org/2000/svg">
<circle cx="24" cy="24" r="23.5" fill="white" stroke="#EBEBF3"/>
<circle cx="24" cy="24" r="16" fill="#0033AD"/>
<path d="M19.1788 23.9247C19.1333 24.7293 19.7388 25.4193 20.5319 25.4663H20.6104C21.3927 25.4654 22.0304 24.8295 22.0448 24.0359C22.0592 23.2423 21.4449 22.583 20.6632 22.5529C19.8815 22.5229 19.2198 23.1331 19.1749 23.9255L19.1788 23.9247Z" fill="white"/>
<path d="M13.8231 23.5553C13.5674 23.5408 13.3485 23.7392 13.3341 23.9986C13.3197 24.258 13.5151 24.4802 13.7708 24.495C14.0265 24.5098 14.2456 24.3116 14.2603 24.0522C14.2675 23.9274 14.2255 23.8048 14.1435 23.7116C14.0614 23.6183 13.9461 23.5621 13.8231 23.5553Z" fill="white"/>
<path d="M19.0878 15.4674C19.3154 15.3488 19.4057 15.0657 19.2896 14.8342C19.1735 14.6028 18.8948 14.5102 18.6663 14.6271C18.4378 14.7441 18.3455 15.0265 18.4599 15.2588C18.5155 15.3712 18.6131 15.4565 18.731 15.4957C18.8489 15.5349 18.9773 15.5247 19.0878 15.4674Z" fill="white"/>
<path d="M20.5452 18.0457C20.8989 17.8647 21.041 17.4272 20.8627 17.0683C20.6844 16.7094 20.2531 16.5651 19.8994 16.746C19.5456 16.9268 19.4033 17.3643 19.5814 17.7232C19.667 17.8957 19.8167 18.0266 19.9975 18.0871C20.1782 18.1476 20.3753 18.1327 20.5452 18.0457Z" fill="white"/>
<path d="M15.6408 19.8191C15.8406 19.9524 16.0998 19.9504 16.2976 19.8141C16.4954 19.6778 16.5927 19.434 16.5442 19.1964C16.4956 18.9589 16.3108 18.7744 16.0759 18.7291C15.841 18.6838 15.6024 18.7865 15.4713 18.9894C15.2925 19.2661 15.3683 19.6374 15.6408 19.8191Z" fill="white"/>
<path d="M16.5143 23.2901C16.1189 23.2675 15.7802 23.5743 15.7577 23.9755C15.7353 24.3767 16.0375 24.7205 16.433 24.7434C16.8284 24.7663 17.1673 24.4597 17.19 24.0585C17.2124 23.6571 16.9099 23.3132 16.5143 23.2901Z" fill="white"/>
<path d="M15.7193 28.1832C15.428 28.3326 15.3112 28.6931 15.4583 28.9887C15.6054 29.2842 15.9607 29.4028 16.2521 29.2537C16.5434 29.1045 16.6604 28.744 16.5135 28.4484C16.4429 28.3063 16.3195 28.1986 16.1705 28.1488C16.0216 28.0991 15.8592 28.1115 15.7193 28.1832Z" fill="white"/>
<path d="M18.5078 21.7859C18.8978 22.0453 19.4213 21.9347 19.6769 21.539C19.9326 21.1433 19.8237 20.6122 19.4337 20.3528C19.0437 20.0933 18.5202 20.2038 18.2645 20.5995C18.1414 20.7895 18.0979 21.0213 18.1436 21.2439C18.1892 21.4665 18.3203 21.6615 18.5078 21.7859Z" fill="white"/>
<path d="M27.3544 17.9885C27.6865 18.2083 28.1314 18.1134 28.3481 17.7765C28.5648 17.4396 28.4714 16.9882 28.1395 16.7682C27.8075 16.5482 27.3626 16.6428 27.1456 16.9796C27.0412 17.1414 27.0045 17.3387 27.0436 17.528C27.0828 17.7173 27.1946 17.883 27.3544 17.9885Z" fill="white"/>
<path d="M28.8268 15.418C28.984 15.5226 29.1878 15.5207 29.3431 15.4133C29.4985 15.3059 29.5747 15.1141 29.5363 14.9274C29.4979 14.7407 29.3523 14.5959 29.1676 14.5606C28.9829 14.5252 28.7954 14.6062 28.6925 14.7659C28.5523 14.9836 28.6123 15.2754 28.8268 15.418Z" fill="white"/>
<path d="M27.4674 22.5376C26.6753 22.4914 25.9963 23.1055 25.9507 23.9092C25.9052 24.7129 26.5105 25.4018 27.3026 25.448C27.3301 25.448 27.3583 25.448 27.3858 25.448C27.9519 25.4477 28.465 25.1101 28.6961 24.5859C28.9273 24.0616 28.8334 23.4485 28.4563 23.0201C28.2038 22.7313 27.8475 22.5574 27.4674 22.5376Z" fill="white"/>
<path d="M21.0169 21.6848C21.2601 22.1778 21.7575 22.4884 22.3009 22.4867C22.8002 22.4868 23.2639 22.2239 23.5254 21.7922C23.7869 21.3606 23.8088 20.8222 23.5833 20.3702C23.3384 19.8795 22.8414 19.5712 22.2993 19.5739C21.8015 19.5747 21.3396 19.8369 21.0784 20.2668C20.8172 20.6968 20.794 21.2333 21.0169 21.6848Z" fill="white"/>
<path d="M32.2793 19.8175C32.5706 19.6684 32.6876 19.308 32.5407 19.0124C32.3939 18.7167 32.0387 18.5978 31.7473 18.7467C31.4559 18.8955 31.3385 19.2558 31.485 19.5516C31.6321 19.8474 31.9875 19.9664 32.2793 19.8175Z" fill="white"/>
<path d="M28.6368 20.2817C28.2203 20.4945 28.0527 21.0097 28.2625 21.4323C28.4723 21.8549 28.98 22.025 29.3966 21.8121C29.8131 21.5993 29.9807 21.0841 29.7709 20.6615C29.6703 20.4584 29.4943 20.3042 29.2815 20.233C29.0688 20.1617 28.8368 20.1792 28.6368 20.2817Z" fill="white"/>
<path d="M23.9451 15.1983C24.1838 15.2121 24.4072 15.0786 24.511 14.8601C24.6149 14.6416 24.5788 14.3812 24.4195 14.2003C24.2603 14.0193 24.0093 13.9536 23.7836 14.0336C23.558 14.1137 23.4021 14.3238 23.3887 14.566C23.3704 14.8965 23.6194 15.1794 23.9451 15.1983Z" fill="white"/>
<path d="M23.9388 18.9719C24.4043 18.9984 24.8029 18.6371 24.8292 18.1648C24.8555 17.6925 24.4996 17.288 24.0341 17.2611C23.5686 17.2341 23.1697 17.5951 23.143 18.0674C23.1167 18.5401 23.4729 18.945 23.9388 18.9719Z" fill="white"/>
<path d="M19.3632 27.7182C19.6683 27.5622 19.8506 27.2351 19.8252 26.8895C19.7998 26.5439 19.5717 26.2478 19.2473 26.1394C18.9228 26.0309 18.566 26.1315 18.3431 26.3941C18.1202 26.6568 18.0753 27.0298 18.2292 27.3392C18.4392 27.7615 18.9469 27.9312 19.3632 27.7182Z" fill="white"/>
<path d="M24.4843 20.222C24.124 20.7799 24.183 21.5148 24.6276 22.0062C25.0722 22.4975 25.7889 22.6199 26.3675 22.3032C26.9461 21.9865 27.2389 21.3116 27.0783 20.6648C26.9178 20.018 26.3449 19.5643 25.6874 19.5635C25.2026 19.5631 24.7503 19.8107 24.4843 20.222Z" fill="white"/>
<path d="M26.9816 26.316C26.6632 25.6753 25.9324 25.3652 25.2592 25.5851C24.586 25.8049 24.1707 26.4893 24.2803 27.1981C24.39 27.907 24.992 28.4294 25.6992 28.4294C25.924 28.4278 26.1454 28.3733 26.3459 28.2701C27.052 27.9075 27.3362 27.0339 26.9816 26.316Z" fill="white"/>
<path d="M29.4915 26.214C29.1016 25.9543 28.5781 26.0645 28.3221 26.4601C28.0662 26.8556 28.1748 27.3868 28.5646 27.6465C28.9545 27.9062 29.4781 27.796 29.734 27.4005C29.9891 27.0047 29.8806 26.4742 29.4915 26.214Z" fill="white"/>
<path d="M32.2416 24.0251C32.2639 23.6238 31.9615 23.2802 31.566 23.2574C31.1706 23.2346 30.8318 23.5413 30.8092 23.9425C30.7866 24.3437 31.0888 24.6876 31.4842 24.7107C31.8799 24.7333 32.2188 24.4265 32.2416 24.0251Z" fill="white"/>
<path d="M34.2288 23.5068C34.0412 23.4958 33.8655 23.6006 33.7838 23.7723C33.702 23.9439 33.7302 24.1487 33.8552 24.291C33.9803 24.4334 34.1775 24.4853 34.355 24.4225C34.5324 24.3598 34.6552 24.1948 34.6659 24.0044C34.6802 23.7447 34.4848 23.5222 34.2288 23.5068Z" fill="white"/>
<path d="M32.3578 28.181C32.0848 27.9996 31.7185 28.077 31.5397 28.3539C31.3608 28.6308 31.437 29.0024 31.7099 29.184C31.9828 29.3655 32.349 29.2883 32.5281 29.0115C32.6141 28.8785 32.6445 28.7162 32.6125 28.5604C32.5806 28.4046 32.4889 28.2681 32.3578 28.181Z" fill="white"/>
<path d="M19.1725 32.582C18.958 32.4392 18.67 32.4998 18.5292 32.7174C18.3884 32.935 18.4481 33.2272 18.6626 33.3701C18.8771 33.513 19.1651 33.4525 19.306 33.2349C19.3737 33.1304 19.3976 33.0029 19.3726 32.8804C19.3476 32.7579 19.2756 32.6506 19.1725 32.582Z" fill="white"/>
<path d="M28.9108 32.5325C28.7429 32.6184 28.6426 32.7983 28.6565 32.9885C28.6705 33.1786 28.7959 33.3415 28.9744 33.4012C29.1529 33.4609 29.3493 33.4056 29.4719 33.2611C29.5946 33.1166 29.6193 32.9114 29.5347 32.7412C29.4794 32.6294 29.3825 32.5446 29.2654 32.5055C29.1483 32.4663 29.0207 32.4761 28.9108 32.5325Z" fill="white"/>
<path d="M23.5142 27.7756C23.8746 27.2176 23.8155 26.4826 23.3708 25.9913C22.9261 25.4999 22.2093 25.3777 21.6307 25.6946C21.0521 26.0115 20.7595 26.6865 20.9203 27.3334C21.0812 27.9802 21.6544 28.4336 22.3119 28.4341C22.7968 28.4358 23.2495 28.1878 23.5142 27.7756Z" fill="white"/>
<path d="M20.6441 30.0124C20.3126 29.7924 19.8682 29.8866 19.6512 30.2228C19.4343 30.559 19.527 31.01 19.8583 31.2302C20.1896 31.4505 20.6341 31.3566 20.8513 31.0205C21.0682 30.684 20.9755 30.2329 20.6441 30.0124Z" fill="white"/>
<path d="M23.993 32.8018C23.6672 32.783 23.388 33.0357 23.3694 33.3662C23.3508 33.6968 23.5998 33.9801 23.9256 33.999C24.2514 34.018 24.5307 33.7654 24.5494 33.4348C24.5584 33.276 24.5049 33.12 24.4005 33.0013C24.2961 32.8826 24.1495 32.8108 23.993 32.8018Z" fill="white"/>
<path d="M23.9993 29.0289C23.658 29.0079 23.338 29.1977 23.1885 29.5096C23.0391 29.8216 23.0898 30.1942 23.3169 30.4534C23.544 30.7127 23.9028 30.8074 24.2257 30.6933C24.5485 30.5793 24.7718 30.279 24.7912 29.9327C24.818 29.4615 24.4637 29.0571 23.9993 29.0289Z" fill="white"/>
<path d="M27.4533 29.9543C27.1942 30.0877 27.0398 30.3664 27.0623 30.6604C27.0848 30.9544 27.2797 31.2056 27.556 31.2969C27.8323 31.3881 28.1357 31.3014 28.3244 31.0772C28.5131 30.8529 28.55 30.5354 28.4179 30.2728C28.3317 30.1006 28.1816 29.9703 28.0007 29.9106C27.8198 29.8508 27.6228 29.8665 27.4533 29.9543Z" fill="white"/>
</svg>
