<svg width="499" height="240" viewBox="0 0 499 240" fill="none" xmlns="http://www.w3.org/2000/svg">
<rect y="213" width="499" height="1" fill="#EEEEEE"/>
<circle cx="28" cy="235" r="4" fill="#7445FB"/>
<path d="M42.959 238H44.0137V230.494H46.6797V229.545H40.293V230.494H42.959V238ZM47.6875 238H48.707V234.443C48.707 233.406 49.334 232.691 50.2773 232.691C51.2266 232.691 51.7891 233.342 51.7891 234.443V238H52.8086V234.268C52.8086 232.791 51.9238 231.789 50.6289 231.789C49.7207 231.789 49.0586 232.193 48.7305 232.879H48.707V229.545H47.6875V238ZM54.6777 230.875C55.0352 230.875 55.3164 230.588 55.3164 230.236C55.3164 229.879 55.0352 229.598 54.6777 229.598C54.3262 229.598 54.0391 229.879 54.0391 230.236C54.0391 230.588 54.3262 230.875 54.6777 230.875ZM54.168 238H55.1875V231.906H54.168V238ZM58.7383 238.117C60.0977 238.117 61.1055 237.367 61.1055 236.301V236.295C61.1055 235.428 60.6602 234.941 59.4297 234.643L58.4629 234.408C57.7891 234.244 57.5137 233.957 57.5137 233.541V233.535C57.5137 232.996 57.9707 232.639 58.709 232.639C59.4648 232.639 59.916 233.031 59.998 233.623L60.0039 233.664H60.9766L60.9707 233.588C60.8945 232.568 60.0449 231.789 58.709 231.789C57.3906 231.789 56.4707 232.533 56.4707 233.582V233.588C56.4707 234.467 57.0273 235 58.1758 235.275L59.1426 235.51C59.834 235.68 60.0625 235.926 60.0625 236.365V236.371C60.0625 236.922 59.5703 237.268 58.7441 237.268C57.9121 237.268 57.4609 236.91 57.3379 236.301L57.3262 236.242H56.3066L56.3125 236.295C56.4355 237.385 57.3027 238.117 58.7383 238.117ZM64.627 238H65.6465V234.18C65.6465 233.33 66.2324 232.691 67.041 232.691C67.7969 232.691 68.2891 233.178 68.2891 233.916V238H69.3086V234.127C69.3086 233.295 69.877 232.691 70.6855 232.691C71.4883 232.691 71.9512 233.189 71.9512 234.027V238H72.9707V233.793C72.9707 232.58 72.1914 231.789 70.9844 231.789C70.1289 231.789 69.4141 232.229 69.0742 232.961H69.0508C68.7871 232.217 68.1719 231.789 67.3398 231.789C66.5547 231.789 65.9453 232.193 65.6699 232.797H65.6465V231.906H64.627V238ZM76.7969 238.117C78.4785 238.117 79.6152 236.898 79.6152 234.953V234.941C79.6152 232.996 78.4727 231.789 76.791 231.789C75.1094 231.789 73.9727 233.002 73.9727 234.941V234.953C73.9727 236.893 75.1035 238.117 76.7969 238.117ZM76.8027 237.215C75.7246 237.215 75.0156 236.389 75.0156 234.953V234.941C75.0156 233.518 75.7305 232.691 76.791 232.691C77.8691 232.691 78.5723 233.512 78.5723 234.941V234.953C78.5723 236.383 77.875 237.215 76.8027 237.215ZM80.6465 238H81.666V234.414C81.666 233.377 82.293 232.691 83.2539 232.691C84.1914 232.691 84.6543 233.236 84.6543 234.227V238H85.6738V234.045C85.6738 232.656 84.9004 231.789 83.5645 231.789C82.6387 231.789 82.0176 232.205 81.6895 232.773H81.666V231.906H80.6465V238ZM88.9551 238.117C89.1543 238.117 89.3711 238.094 89.5 238.076V237.25C89.4121 237.256 89.2949 237.273 89.1719 237.273C88.627 237.273 88.3398 237.092 88.3398 236.441V232.75H89.5V231.906H88.3398V230.26H87.2852V231.906H86.3945V232.75H87.2852V236.447C87.2852 237.613 87.8359 238.117 88.9551 238.117ZM90.6484 238H91.668V234.443C91.668 233.406 92.2949 232.691 93.2383 232.691C94.1875 232.691 94.75 233.342 94.75 234.443V238H95.7695V234.268C95.7695 232.791 94.8848 231.789 93.5898 231.789C92.6816 231.789 92.0195 232.193 91.6914 232.879H91.668V229.545H90.6484V238Z" fill="#9896A1"/>
<circle cx="113" cy="235" r="4" fill="#D5D5D6"/>
<path d="M125.82 239H130.953V238.051H126.875V230.545H125.82V239ZM133.736 239.117C134.551 239.117 135.283 238.678 135.641 238.01H135.664V239H136.684V234.787C136.684 233.568 135.781 232.789 134.34 232.789C132.904 232.789 132.031 233.598 131.943 234.6L131.938 234.664H132.922L132.934 234.611C133.051 234.066 133.543 233.691 134.328 233.691C135.178 233.691 135.664 234.143 135.664 234.887V235.396L133.918 235.496C132.518 235.578 131.709 236.229 131.709 237.266V237.277C131.709 238.385 132.523 239.117 133.736 239.117ZM132.752 237.277V237.266C132.752 236.697 133.221 236.334 134.035 236.287L135.664 236.188V236.686C135.664 237.57 134.926 238.232 133.965 238.232C133.232 238.232 132.752 237.863 132.752 237.277ZM140.141 239.117C141.5 239.117 142.508 238.367 142.508 237.301V237.295C142.508 236.428 142.062 235.941 140.832 235.643L139.865 235.408C139.191 235.244 138.916 234.957 138.916 234.541V234.535C138.916 233.996 139.373 233.639 140.111 233.639C140.867 233.639 141.318 234.031 141.4 234.623L141.406 234.664H142.379L142.373 234.588C142.297 233.568 141.447 232.789 140.111 232.789C138.793 232.789 137.873 233.533 137.873 234.582V234.588C137.873 235.467 138.43 236 139.578 236.275L140.545 236.51C141.236 236.68 141.465 236.926 141.465 237.365V237.371C141.465 237.922 140.973 238.268 140.146 238.268C139.314 238.268 138.863 237.91 138.74 237.301L138.729 237.242H137.709L137.715 237.295C137.838 238.385 138.705 239.117 140.141 239.117ZM145.549 239.117C145.748 239.117 145.965 239.094 146.094 239.076V238.25C146.006 238.256 145.889 238.273 145.766 238.273C145.221 238.273 144.934 238.092 144.934 237.441V233.75H146.094V232.906H144.934V231.26H143.879V232.906H142.988V233.75H143.879V237.447C143.879 238.613 144.43 239.117 145.549 239.117ZM149.65 239H150.67V235.18C150.67 234.33 151.256 233.691 152.064 233.691C152.82 233.691 153.312 234.178 153.312 234.916V239H154.332V235.127C154.332 234.295 154.9 233.691 155.709 233.691C156.512 233.691 156.975 234.189 156.975 235.027V239H157.994V234.793C157.994 233.58 157.215 232.789 156.008 232.789C155.152 232.789 154.438 233.229 154.098 233.961H154.074C153.811 233.217 153.195 232.789 152.363 232.789C151.578 232.789 150.969 233.193 150.693 233.797H150.67V232.906H149.65V239ZM161.82 239.117C163.502 239.117 164.639 237.898 164.639 235.953V235.941C164.639 233.996 163.496 232.789 161.814 232.789C160.133 232.789 158.996 234.002 158.996 235.941V235.953C158.996 237.893 160.127 239.117 161.82 239.117ZM161.826 238.215C160.748 238.215 160.039 237.389 160.039 235.953V235.941C160.039 234.518 160.754 233.691 161.814 233.691C162.893 233.691 163.596 234.512 163.596 235.941V235.953C163.596 237.383 162.898 238.215 161.826 238.215ZM165.67 239H166.689V235.414C166.689 234.377 167.316 233.691 168.277 233.691C169.215 233.691 169.678 234.236 169.678 235.227V239H170.697V235.045C170.697 233.656 169.924 232.789 168.588 232.789C167.662 232.789 167.041 233.205 166.713 233.773H166.689V232.906H165.67V239ZM173.979 239.117C174.178 239.117 174.395 239.094 174.523 239.076V238.25C174.436 238.256 174.318 238.273 174.195 238.273C173.65 238.273 173.363 238.092 173.363 237.441V233.75H174.523V232.906H173.363V231.26H172.309V232.906H171.418V233.75H172.309V237.447C172.309 238.613 172.859 239.117 173.979 239.117ZM175.672 239H176.691V235.443C176.691 234.406 177.318 233.691 178.262 233.691C179.211 233.691 179.773 234.342 179.773 235.443V239H180.793V235.268C180.793 233.791 179.908 232.789 178.613 232.789C177.705 232.789 177.043 233.193 176.715 233.879H176.691V230.545H175.672V239Z" fill="#9896A1"/>
<path opacity="0.3" d="M57 184C109.707 184 103.479 87 156.186 87C208.893 87 202.656 112.866 255.363 112.866C308.07 112.866 299.951 155.362 352.658 155.362C405.366 155.362 414.293 134.469 467 134.469" stroke="#858585" stroke-width="2" stroke-linecap="round" stroke-dasharray="4 4"/>
<path d="M57 184C108.268 184 114.817 112.783 166.086 112.783C217.354 112.783 208.854 56.2001 260.123 56.2001C311.391 56.2001 300.411 86.2755 351.679 86.2755C402.947 86.2755 415.732 30 467 30" stroke="#7445FB" stroke-width="2" stroke-linecap="round"/>
<path d="M57 184C107.692 184 114.168 112.511 164.86 112.511C215.552 112.511 207.148 55.6565 257.84 55.6565C308.532 55.6565 302.308 86.2379 353 86.2379C396.5 88.7453 419.683 27.3622 467 30.0881V184" fill="url(#paint0_linear_2706_115)"/>
<line opacity="0.64" x1="57" y1="5.5" x2="467" y2="5.50004" stroke="#858585" stroke-dasharray="1 6"/>
<path d="M34.9443 9.11719C36.3555 9.11719 37.3906 8.24805 37.3906 7.07129V7.06152C37.3906 6.06055 36.6924 5.4209 35.667 5.33301V5.31348C36.5459 5.12793 37.1611 4.53223 37.1611 3.66309V3.65332C37.1611 2.58398 36.2773 1.83691 34.9346 1.83691C33.6162 1.83691 32.708 2.60352 32.5957 3.75098L32.5908 3.7998H33.4355L33.4404 3.75098C33.5137 3.03809 34.1045 2.59863 34.9346 2.59863C35.7939 2.59863 36.2773 3.02344 36.2773 3.76074V3.77051C36.2773 4.47363 35.6914 4.99121 34.8516 4.99121H34.0068V5.7334H34.8906C35.877 5.7334 36.4971 6.2168 36.4971 7.08105V7.09082C36.4971 7.83789 35.8672 8.35547 34.9443 8.35547C34.0068 8.35547 33.3721 7.87695 33.2988 7.18359L33.2939 7.13477H32.4492L32.4541 7.19336C32.5469 8.30664 33.4893 9.11719 34.9443 9.11719ZM40.9453 9.11719C42.5664 9.11719 43.5381 7.71582 43.5381 5.47949V5.46973C43.5381 3.2334 42.5664 1.83691 40.9453 1.83691C39.3242 1.83691 38.3623 3.2334 38.3623 5.46973V5.47949C38.3623 7.71582 39.3242 9.11719 40.9453 9.11719ZM40.9453 8.35059C39.8711 8.35059 39.2461 7.24707 39.2461 5.47949V5.46973C39.2461 3.70215 39.8711 2.6084 40.9453 2.6084C42.0195 2.6084 42.6543 3.70215 42.6543 5.46973V5.47949C42.6543 7.24707 42.0195 8.35059 40.9453 8.35059ZM44.6025 9H45.4521V7.08594L45.9258 6.63184L47.8105 9H48.7969L46.5264 6.11426L48.7285 3.92188H47.6982L45.4717 6.16309H45.4521V1.9541H44.6025V9Z" fill="black" fill-opacity="0.48"/>
<line opacity="0.64" x1="57" y1="35.3334" x2="467" y2="35.3334" stroke="#858585" stroke-dasharray="1 6"/>
<path d="M32.5713 38.8334H37.2197V38.0521H33.7773V38.0326L35.4521 36.3138C36.7461 34.9906 37.1025 34.4095 37.1025 33.6381V33.6283C37.1025 32.5248 36.1699 31.6703 34.8955 31.6703C33.582 31.6703 32.5273 32.5736 32.5273 33.7943V33.8236H33.377V33.7992C33.377 33.0424 34.0312 32.4369 34.9102 32.4369C35.6768 32.4369 36.2188 32.9545 36.2236 33.6722V33.682C36.2236 34.2679 36.0039 34.6488 35.0518 35.64L32.5713 38.2279V38.8334ZM40.6572 38.9506C42.1221 38.9506 43.1621 37.9642 43.167 36.5531V36.5433C43.167 35.1908 42.1904 34.2094 40.8379 34.2094C40.1543 34.2094 39.5684 34.4633 39.2363 34.9369H39.2168L39.4561 32.5687H42.7666V31.7875H38.7334L38.3721 35.806H39.1484C39.2412 35.6449 39.3535 35.5082 39.4805 35.391C39.793 35.1078 40.2031 34.9662 40.6816 34.9662C41.6143 34.9662 42.2832 35.6302 42.2881 36.558V36.5677C42.2881 37.515 41.624 38.1791 40.667 38.1791C39.8223 38.1791 39.1973 37.6469 39.1094 36.9486L39.1045 36.9095H38.2402L38.2451 36.9633C38.3477 38.1107 39.3096 38.9506 40.6572 38.9506ZM44.1338 38.8334H44.9834V36.9193L45.457 36.4652L47.3418 38.8334H48.3281L46.0576 35.9476L48.2598 33.7552H47.2295L45.0029 35.9965H44.9834V31.7875H44.1338V38.8334Z" fill="black" fill-opacity="0.48"/>
<line opacity="0.64" x1="57" y1="65.1666" x2="467" y2="65.1667" stroke="#858585" stroke-dasharray="1 6"/>
<path d="M32.5713 68.6666H37.2197V67.8854H33.7773V67.8658L35.4521 66.1471C36.7461 64.8239 37.1025 64.2428 37.1025 63.4713V63.4615C37.1025 62.358 36.1699 61.5035 34.8955 61.5035C33.582 61.5035 32.5273 62.4069 32.5273 63.6276V63.6569H33.377V63.6324C33.377 62.8756 34.0312 62.2701 34.9102 62.2701C35.6768 62.2701 36.2188 62.7877 36.2236 63.5055V63.5153C36.2236 64.1012 36.0039 64.4821 35.0518 65.4733L32.5713 68.0612V68.6666ZM40.6914 68.7838C42.3125 68.7838 43.2842 67.3824 43.2842 65.1461V65.1364C43.2842 62.9 42.3125 61.5035 40.6914 61.5035C39.0703 61.5035 38.1084 62.9 38.1084 65.1364V65.1461C38.1084 67.3824 39.0703 68.7838 40.6914 68.7838ZM40.6914 68.0172C39.6172 68.0172 38.9922 66.9137 38.9922 65.1461V65.1364C38.9922 63.3688 39.6172 62.275 40.6914 62.275C41.7656 62.275 42.4004 63.3688 42.4004 65.1364V65.1461C42.4004 66.9137 41.7656 68.0172 40.6914 68.0172ZM44.3486 68.6666H45.1982V66.7526L45.6719 66.2985L47.5566 68.6666H48.543L46.2725 65.7809L48.4746 63.5885H47.4443L45.2178 65.8297H45.1982V61.6207H44.3486V68.6666Z" fill="black" fill-opacity="0.48"/>
<line opacity="0.64" x1="57" y1="95" x2="467" y2="95" stroke="#858585" stroke-dasharray="1 6"/>
<path d="M34.3682 98.5H35.2178V91.4541H34.3584L32.4834 92.8018V93.6855L34.3486 92.3867H34.3682V98.5ZM39.4268 98.6172C40.8916 98.6172 41.9316 97.6309 41.9365 96.2197V96.21C41.9365 94.8574 40.96 93.876 39.6074 93.876C38.9238 93.876 38.3379 94.1299 38.0059 94.6035H37.9863L38.2256 92.2354H41.5361V91.4541H37.5029L37.1416 95.4727H37.918C38.0107 95.3115 38.123 95.1748 38.25 95.0576C38.5625 94.7744 38.9727 94.6328 39.4512 94.6328C40.3838 94.6328 41.0527 95.2969 41.0576 96.2246V96.2344C41.0576 97.1816 40.3936 97.8457 39.4365 97.8457C38.5918 97.8457 37.9668 97.3135 37.8789 96.6152L37.874 96.5762H37.0098L37.0146 96.6299C37.1172 97.7773 38.0791 98.6172 39.4268 98.6172ZM42.9033 98.5H43.7529V96.5859L44.2266 96.1318L46.1113 98.5H47.0977L44.8271 95.6143L47.0293 93.4219H45.999L43.7725 95.6631H43.7529V91.4541H42.9033V98.5Z" fill="black" fill-opacity="0.48"/>
<line opacity="0.64" x1="57" y1="124.833" x2="467" y2="124.833" stroke="#858585" stroke-dasharray="1 6"/>
<path d="M34.3682 128.333H35.2178V121.287H34.3584L32.4834 122.635V123.519L34.3486 122.22H34.3682V128.333ZM39.4609 128.451C41.082 128.451 42.0537 127.049 42.0537 124.813V124.803C42.0537 122.567 41.082 121.17 39.4609 121.17C37.8398 121.17 36.8779 122.567 36.8779 124.803V124.813C36.8779 127.049 37.8398 128.451 39.4609 128.451ZM39.4609 127.684C38.3867 127.684 37.7617 126.58 37.7617 124.813V124.803C37.7617 123.036 38.3867 121.942 39.4609 121.942C40.5352 121.942 41.1699 123.036 41.1699 124.803V124.813C41.1699 126.58 40.5352 127.684 39.4609 127.684ZM43.1182 128.333H43.9678V126.419L44.4414 125.965L46.3262 128.333H47.3125L45.042 125.448L47.2441 123.255H46.2139L43.9873 125.496H43.9678V121.287H43.1182V128.333Z" fill="black" fill-opacity="0.48"/>
<line opacity="0.64" x1="57" y1="154.667" x2="467" y2="154.667" stroke="#858585" stroke-dasharray="1 6"/>
<path d="M34.9932 158.284C36.458 158.284 37.498 157.297 37.5029 155.886V155.877C37.5029 154.524 36.5264 153.543 35.1738 153.543C34.4902 153.543 33.9043 153.797 33.5723 154.27H33.5527L33.792 151.902H37.1025V151.121H33.0693L32.708 155.139H33.4844C33.5771 154.978 33.6895 154.841 33.8164 154.724C34.1289 154.441 34.5391 154.299 35.0176 154.299C35.9502 154.299 36.6191 154.964 36.624 155.891V155.901C36.624 156.848 35.96 157.512 35.0029 157.512C34.1582 157.512 33.5332 156.98 33.4453 156.282L33.4404 156.243H32.5762L32.5811 156.297C32.6836 157.444 33.6455 158.284 34.9932 158.284ZM38.4697 158.167H39.3193V156.253L39.793 155.798L41.6777 158.167H42.6641L40.3936 155.281L42.5957 153.089H41.5654L39.3389 155.33H39.3193V151.121H38.4697V158.167Z" fill="black" fill-opacity="0.48"/>
<line opacity="0.64" x1="57" y1="184.5" x2="467" y2="184.5" stroke="#858585" stroke-dasharray="1 6"/>
<path d="M35.0273 188.117C36.6484 188.117 37.6201 186.716 37.6201 184.479V184.47C37.6201 182.233 36.6484 180.837 35.0273 180.837C33.4062 180.837 32.4443 182.233 32.4443 184.47V184.479C32.4443 186.716 33.4062 188.117 35.0273 188.117ZM35.0273 187.351C33.9531 187.351 33.3281 186.247 33.3281 184.479V184.47C33.3281 182.702 33.9531 181.608 35.0273 181.608C36.1016 181.608 36.7363 182.702 36.7363 184.47V184.479C36.7363 186.247 36.1016 187.351 35.0273 187.351Z" fill="black" fill-opacity="0.48"/>
<rect x="237" y="10" width="56" height="32" rx="4" fill="#0A041C"/>
<path d="M252.709 30.8496H253.412V29.8652C254.795 29.7539 255.943 28.9629 255.943 27.5566V27.5449C255.943 26.3203 255.1 25.6992 253.594 25.3359L253.412 25.2949V22.6055C254.203 22.7051 254.766 23.1914 254.842 23.9766V23.9883L255.861 23.9824V23.9766C255.814 22.6875 254.766 21.8086 253.412 21.6855V20.6953H252.709V21.6855C251.32 21.8145 250.33 22.6699 250.33 23.9238V23.9355C250.33 25.084 251.115 25.7344 252.574 26.0859L252.709 26.1211V28.9395C251.689 28.8281 251.238 28.248 251.133 27.5215V27.5098L250.113 27.5156V27.5215C250.16 28.8809 251.314 29.7305 252.709 29.8594V30.8496ZM251.35 23.8652V23.8535C251.35 23.291 251.818 22.7285 252.709 22.6055V25.125C251.701 24.8789 251.35 24.4336 251.35 23.8652ZM253.447 26.2969C254.607 26.5781 254.924 26.9883 254.924 27.627V27.6387C254.924 28.3125 254.502 28.8633 253.412 28.9512V26.291L253.447 26.2969ZM258.059 30H259.91L263.443 22.9688V21.5391H257.396V22.9512H261.662V23.0508L258.059 30ZM263.432 32.2734H264.574L265.641 28.6465H263.947L263.432 32.2734ZM270.604 30.2168C272.502 30.2168 273.814 29.0039 273.814 27.2227V27.2109C273.814 25.5996 272.678 24.4395 271.102 24.4395C270.293 24.4395 269.637 24.791 269.297 25.3594H269.191L269.402 22.9512H273.311V21.5449H268.025L267.633 26.5488H269.15C269.244 26.3672 269.385 26.209 269.543 26.0801C269.824 25.8398 270.188 25.7168 270.615 25.7168C271.512 25.7168 272.15 26.3438 272.15 27.2461V27.2578C272.15 28.166 271.518 28.8047 270.609 28.8047C269.812 28.8047 269.232 28.3066 269.109 27.6855L269.098 27.6445H267.492L267.498 27.7266C267.598 29.1387 268.793 30.2168 270.604 30.2168ZM275.426 30H277.137V27.8379L277.605 27.3398L279.486 30H281.508L278.859 26.2852L281.338 23.5488H279.398L277.242 26.0977H277.137V21.082H275.426V30Z" fill="#FAFAFA"/>
<path d="M265 46L260.67 41.5L269.33 41.5L265 46Z" fill="#0A041C"/>
<rect opacity="0.2" x="264" y="57" width="1" height="157" fill="black"/>
<circle cx="264.5" cy="56.5" r="4.5" fill="#FAFAFA" stroke="#7445FB" stroke-width="2"/>
<path d="M277.842 203H278.861V194.545H277.83L275.58 196.162V197.223L277.818 195.664H277.842V203ZM281.492 203H282.6L286.361 195.523V194.545H280.766V195.482H285.318V195.506L281.492 203ZM290.164 203H291.148V196.467H291.184L293.885 203H294.775L297.477 196.467H297.512V203H298.496V194.545H297.277L294.348 201.67H294.312L291.383 194.545H290.164V203ZM301.584 203.117C302.398 203.117 303.131 202.678 303.488 202.01H303.512V203H304.531V198.787C304.531 197.568 303.629 196.789 302.188 196.789C300.752 196.789 299.879 197.598 299.791 198.6L299.785 198.664H300.77L300.781 198.611C300.898 198.066 301.391 197.691 302.176 197.691C303.025 197.691 303.512 198.143 303.512 198.887V199.396L301.766 199.496C300.365 199.578 299.557 200.229 299.557 201.266V201.277C299.557 202.385 300.371 203.117 301.584 203.117ZM300.6 201.277V201.266C300.6 200.697 301.068 200.334 301.883 200.287L303.512 200.188V200.686C303.512 201.57 302.773 202.232 301.812 202.232C301.08 202.232 300.6 201.863 300.6 201.277ZM306.412 205.051C307.514 205.051 308.047 204.547 308.48 203.381L310.859 196.906H309.787L308.1 201.98H308.076L306.395 196.906H305.305L307.566 203.006L307.443 203.352C307.197 204.043 306.84 204.207 306.195 204.207C306.072 204.207 305.955 204.189 305.867 204.172V205.004C305.996 205.027 306.213 205.051 306.412 205.051Z" fill="#0A041C"/>
<defs>
<linearGradient id="paint0_linear_2706_115" x1="262" y1="73.7049" x2="262" y2="184" gradientUnits="userSpaceOnUse">
<stop stop-color="#7445FB" stop-opacity="0.16"/>
<stop offset="1" stop-color="#7445FB" stop-opacity="0"/>
</linearGradient>
</defs>
</svg>
